<mxfile host="drawio-plugin" modified="2021-04-10T14:40:19.089Z" agent="5.0 (Windows NT 6.2; Win64; x64) AppleWebKit/537.36 (KHTML, like Gecko) Chrome/84.0.4147.105 Safari/537.36" version="13.7.9" etag="XtuCo2e6e7wsfnLrKZMx" type="embed"><diagram id="2sEbRZzfdV60qJjtAkV-" name="Page-1"><mxGraphModel dx="1027" dy="743" grid="1" gridSize="10" guides="1" tooltips="1" connect="1" arrows="1" fold="1" page="1" pageScale="1" pageWidth="850" pageHeight="1100" math="0" shadow="0"><root><mxCell id="0"/><mxCell id="1" parent="0"/><mxCell id="29" style="edgeStyle=orthogonalEdgeStyle;rounded=0;orthogonalLoop=1;jettySize=auto;html=1;exitX=0.5;exitY=1;exitDx=0;exitDy=0;entryX=0.5;entryY=0;entryDx=0;entryDy=0;" edge="1" parent="1" source="2" target="4"><mxGeometry relative="1" as="geometry"/></mxCell><mxCell id="2" value="" style="rounded=1;whiteSpace=wrap;html=1;" vertex="1" parent="1"><mxGeometry x="319.5" y="10" width="120" height="60" as="geometry"/></mxCell><mxCell id="3" value="Запуск" style="text;html=1;strokeColor=none;fillColor=none;align=center;verticalAlign=middle;whiteSpace=wrap;rounded=0;" vertex="1" parent="1"><mxGeometry x="363" y="30" width="40" height="20" as="geometry"/></mxCell><mxCell id="30" style="edgeStyle=orthogonalEdgeStyle;rounded=0;orthogonalLoop=1;jettySize=auto;html=1;exitX=0.5;exitY=1;exitDx=0;exitDy=0;entryX=0.5;entryY=0;entryDx=0;entryDy=0;" edge="1" parent="1" source="4" target="19"><mxGeometry relative="1" as="geometry"/></mxCell><mxCell id="4" value="" style="shape=loopLimit;whiteSpace=wrap;html=1;" vertex="1" parent="1"><mxGeometry x="320" y="120" width="120" height="80" as="geometry"/></mxCell><mxCell id="6" value="i = 0;&lt;br&gt;i &amp;lt; arr.length - 1;" style="text;html=1;strokeColor=none;fillColor=none;align=center;verticalAlign=middle;whiteSpace=wrap;rounded=0;" vertex="1" parent="1"><mxGeometry x="326" y="150" width="110" height="20" as="geometry"/></mxCell><mxCell id="32" style="edgeStyle=orthogonalEdgeStyle;rounded=0;orthogonalLoop=1;jettySize=auto;html=1;exitX=0.5;exitY=1;exitDx=0;exitDy=0;" edge="1" parent="1" source="8"><mxGeometry relative="1" as="geometry"><mxPoint x="160" y="289" as="targetPoint"/></mxGeometry></mxCell><mxCell id="8" value="" style="shape=loopLimit;whiteSpace=wrap;html=1;" vertex="1" parent="1"><mxGeometry x="100" y="190" width="120" height="80" as="geometry"/></mxCell><mxCell id="9" value="j = i + 1;&lt;br&gt;j &amp;lt; arr.length;&lt;br&gt;" style="text;html=1;strokeColor=none;fillColor=none;align=center;verticalAlign=middle;whiteSpace=wrap;rounded=0;" vertex="1" parent="1"><mxGeometry x="106" y="220" width="110" height="20" as="geometry"/></mxCell><mxCell id="21" style="edgeStyle=orthogonalEdgeStyle;rounded=0;orthogonalLoop=1;jettySize=auto;html=1;exitX=0;exitY=0.5;exitDx=0;exitDy=0;entryX=0;entryY=0.5;entryDx=0;entryDy=0;" edge="1" parent="1" source="11" target="8"><mxGeometry relative="1" as="geometry"><Array as="points"><mxPoint x="30" y="333"/><mxPoint x="30" y="230"/></Array></mxGeometry></mxCell><mxCell id="26" style="edgeStyle=orthogonalEdgeStyle;rounded=0;orthogonalLoop=1;jettySize=auto;html=1;exitX=0.5;exitY=1;exitDx=0;exitDy=0;entryX=0.5;entryY=0;entryDx=0;entryDy=0;" edge="1" parent="1" source="11" target="24"><mxGeometry relative="1" as="geometry"/></mxCell><mxCell id="11" value="" style="rhombus;whiteSpace=wrap;html=1;" vertex="1" parent="1"><mxGeometry x="101" y="293" width="120" height="80" as="geometry"/></mxCell><mxCell id="14" value="arr[j] &amp;lt; arr[minIndex]" style="text;html=1;strokeColor=none;fillColor=none;align=center;verticalAlign=middle;whiteSpace=wrap;rounded=0;" vertex="1" parent="1"><mxGeometry x="113" y="313" width="100" height="40" as="geometry"/></mxCell><mxCell id="55" style="edgeStyle=orthogonalEdgeStyle;rounded=0;orthogonalLoop=1;jettySize=auto;html=1;exitX=0;exitY=0.5;exitDx=0;exitDy=0;entryX=1;entryY=0.5;entryDx=0;entryDy=0;" edge="1" parent="1" source="18" target="8"><mxGeometry relative="1" as="geometry"/></mxCell><mxCell id="18" value="" style="rounded=0;whiteSpace=wrap;html=1;" vertex="1" parent="1"><mxGeometry x="321" y="220" width="120" height="20" as="geometry"/></mxCell><mxCell id="19" value="minIndex = i;" style="text;html=1;strokeColor=none;fillColor=none;align=center;verticalAlign=middle;whiteSpace=wrap;rounded=0;" vertex="1" parent="1"><mxGeometry x="331.75" y="220" width="100" height="20" as="geometry"/></mxCell><mxCell id="23" value="Нет" style="text;html=1;strokeColor=none;fillColor=none;align=center;verticalAlign=middle;whiteSpace=wrap;rounded=0;" vertex="1" parent="1"><mxGeometry x="40" y="313" width="40" height="20" as="geometry"/></mxCell><mxCell id="24" value="" style="rounded=0;whiteSpace=wrap;html=1;" vertex="1" parent="1"><mxGeometry x="99.25" y="399" width="120" height="24" as="geometry"/></mxCell><mxCell id="38" style="edgeStyle=orthogonalEdgeStyle;rounded=0;orthogonalLoop=1;jettySize=auto;html=1;exitX=0.5;exitY=1;exitDx=0;exitDy=0;entryX=0.5;entryY=0;entryDx=0;entryDy=0;" edge="1" parent="1" source="25" target="36"><mxGeometry relative="1" as="geometry"/></mxCell><mxCell id="25" value="minIndex = j;" style="text;html=1;strokeColor=none;fillColor=none;align=center;verticalAlign=middle;whiteSpace=wrap;rounded=0;" vertex="1" parent="1"><mxGeometry x="110" y="403" width="100" height="20" as="geometry"/></mxCell><mxCell id="27" value="Да" style="text;html=1;strokeColor=none;fillColor=none;align=center;verticalAlign=middle;whiteSpace=wrap;rounded=0;" vertex="1" parent="1"><mxGeometry x="160" y="373" width="40" height="20" as="geometry"/></mxCell><mxCell id="48" style="edgeStyle=orthogonalEdgeStyle;rounded=0;orthogonalLoop=1;jettySize=auto;html=1;exitX=0.5;exitY=1;exitDx=0;exitDy=0;entryX=0.5;entryY=1;entryDx=0;entryDy=0;" edge="1" parent="1" source="36" target="42"><mxGeometry relative="1" as="geometry"/></mxCell><mxCell id="36" value="" style="rounded=0;whiteSpace=wrap;html=1;" vertex="1" parent="1"><mxGeometry x="60" y="449" width="200" height="50" as="geometry"/></mxCell><mxCell id="37" value="tmp = arr[j];&lt;br&gt;arr[j] = arr[minIndex];&lt;br&gt;arr[minIndex] = tmp;" style="text;html=1;strokeColor=none;fillColor=none;align=center;verticalAlign=middle;whiteSpace=wrap;rounded=0;" vertex="1" parent="1"><mxGeometry x="70" y="464" width="180" height="20" as="geometry"/></mxCell><mxCell id="54" style="edgeStyle=orthogonalEdgeStyle;rounded=0;orthogonalLoop=1;jettySize=auto;html=1;exitX=0;exitY=0.5;exitDx=0;exitDy=0;" edge="1" parent="1" source="42"><mxGeometry relative="1" as="geometry"><mxPoint x="320" y="554" as="targetPoint"/></mxGeometry></mxCell><mxCell id="42" value="" style="shape=loopLimit;whiteSpace=wrap;html=1;direction=west;" vertex="1" parent="1"><mxGeometry x="99.25" y="529" width="120" height="50" as="geometry"/></mxCell><mxCell id="43" value="j++" style="text;html=1;strokeColor=none;fillColor=none;align=center;verticalAlign=middle;whiteSpace=wrap;rounded=0;direction=west;" vertex="1" parent="1"><mxGeometry x="103" y="544" width="110" height="20" as="geometry"/></mxCell><mxCell id="58" style="edgeStyle=orthogonalEdgeStyle;rounded=0;orthogonalLoop=1;jettySize=auto;html=1;exitX=0;exitY=0.5;exitDx=0;exitDy=0;entryX=0;entryY=0.5;entryDx=0;entryDy=0;" edge="1" parent="1" source="49" target="56"><mxGeometry relative="1" as="geometry"/></mxCell><mxCell id="49" value="" style="shape=loopLimit;whiteSpace=wrap;html=1;direction=west;" vertex="1" parent="1"><mxGeometry x="321.75" y="530" width="120" height="50" as="geometry"/></mxCell><mxCell id="50" value="i++" style="text;html=1;strokeColor=none;fillColor=none;align=center;verticalAlign=middle;whiteSpace=wrap;rounded=0;direction=west;" vertex="1" parent="1"><mxGeometry x="328" y="545" width="110" height="20" as="geometry"/></mxCell><mxCell id="56" value="" style="rounded=1;whiteSpace=wrap;html=1;" vertex="1" parent="1"><mxGeometry x="510" y="529" width="120" height="51" as="geometry"/></mxCell><mxCell id="57" value="return arr;" style="text;html=1;strokeColor=none;fillColor=none;align=center;verticalAlign=middle;whiteSpace=wrap;rounded=0;" vertex="1" parent="1"><mxGeometry x="540" y="544" width="60" height="20" as="geometry"/></mxCell></root></mxGraphModel></diagram></mxfile>